# xmcd
#
# Track frame offsets:
#  180
#  20596
#  34627
#  52898
#  65837
#  78212
#  90521
#  107595
#  121191
#  131648
#  145498
#  158435
#  169795
#  183111
#  194597
#  218783
#  227848
#  240634
#  251713
#  264853
#  275423
#  288413
#  299298
#  311413
#
# Disc length: 4406 seconds
#
# Revision: 0
# Processed by: cddbd v1.5.1PL0 Copyright (c) Steve Scherf et al.
# Submitted via: Collectorz.com Music Collector 6.9
#
DISCID=51113418
DTITLE=Various Artist - Hey: Let´s Party, The Best Pachanga
DYEAR=1900
DGENRE=Pachaga
TTITLE0=La Pachanga
TTITLE1=La Pachanga Se Baila Así
TTITLE2=Si No Vas a la Pachanga
TTITLE3=En Casa de Estanilado
TTITLE4=Dolores
TTITLE5=Ya Llegó la Pachanga
TTITLE6=Apriétale el Tumbaito
TTITLE7=Lluvia con Nieve
TTITLE8=Don José Pachanga
TTITLE9=Pachanga de la O
TTITLE10=Pa´ Chismoso Tú
TTITLE11=En Puerta de Tierra
TTITLE12=Que Pachanga
TTITLE13=Cha Cha Con Pachanga
TTITLE14=Chiviriquito
TTITLE15=Pachanga Caridad
TTITLE16=Me Voy Pa´ las Villas
TTITLE17=Pachanga Yes
TTITLE18=Dance With Pachanga
TTITLE19=Pachanga Brava
TTITLE20=Son de Pachanga
TTITLE21=Ala, Ala, Ale
TTITLE22=Como Baila Pachanga
TTITLE23=Medley Pachanga
EXTD=
EXTT0=
EXTT1=
EXTT2=
EXTT3=
EXTT4=
EXTT5=
EXTT6=
EXTT7=
EXTT8=
EXTT9=
EXTT10=
EXTT11=
EXTT12=
EXTT13=
EXTT14=
EXTT15=
EXTT16=
EXTT17=
EXTT18=
EXTT19=
EXTT20=
EXTT21=
EXTT22=
EXTT23=
PLAYORDER=
